<svg aria-hidden="true" style="position: absolute; width: 0; height: 0; overflow: hidden;" version="1.1" xmlns="http://www.w3.org/2000/svg" xmlns:xlink="http://www.w3.org/1999/xlink">
<defs>
<symbol id="icon-dragon" viewBox="0 0 32 32">
<path d="M7.058 1.679c0.67 0.715 1.214 1.793 1.316 2.61l0.079 0.647 0.567 0.079c1.645 0.238 4.233 1.282 5.685 2.292 0.817 0.579 0.896 0.511 0.533-0.409-0.862-2.201-3.257-4.062-6.718-5.197-0.726-0.238-1.464-0.465-1.657-0.511-0.329-0.068-0.318-0.068 0.193 0.488z"></path>
<path d="M3.801 5.799c-0.84 0.125-2.916 0.647-3.041 0.772-0.045 0.057 0.136 0.125 0.42 0.159 0.76 0.102 1.623 0.59 2.292 1.282 1.123 1.146 1.611 2.803 1.271 4.244-0.102 0.409-0.216 0.851-0.261 0.987-0.079 0.25-0.045 0.261 0.465 0.261 1.952 0.023 3.506 1.872 3.143 3.733l-0.113 0.567 0.454-0.227c0.567-0.295 1.475-0.386 2.099-0.227 0.908 0.25 1.713 1.214 1.895 2.247l0.079 0.488 0.499-0.295c0.931-0.545 2.111-0.499 2.962 0.125 0.227 0.182 0.25 0.17 0.522-0.42 0.386-0.828 0.999-1.487 1.691-1.838 1.021-0.511 1.396-0.363 1.748 0.658 0.386 1.123-0.023 2.53-0.999 3.427-0.284 0.272-0.862 0.613-1.396 0.828-1.464 0.613-2.224 1.203-2.701 2.099-0.352 0.658-0.352 2.065 0 2.814 0.363 0.794 1.248 1.623 2.224 2.077 1.407 0.647 1.396 0.647 0.919-0.227-0.227-0.409-0.477-0.942-0.545-1.18-0.148-0.511-0.306-0.59-0.465-0.25-0.136 0.295-0.182 0.295-0.545 0.011-0.397-0.306-0.76-1.112-0.76-1.657 0-0.908 0.454-1.316 1.963-1.804 2.451-0.806 3.926-1.872 4.687-3.393 0.42-0.828 0.431-0.624 0.045 0.42-0.306 0.806-1.089 1.77-1.861 2.281-0.681 0.454-1.691 0.862-2.133 0.862-0.148 0-0.34 0.057-0.431 0.113-0.295 0.193 2.36 0.136 3.121-0.057 1.339-0.34 2.44-1.43 3.007-2.95 0.738-2.009 0.204-4.221-1.577-6.582-1.226-1.623-1.713-2.757-1.713-4.017 0.011-1.226 0.533-2.065 1.418-2.235 0.465-0.079 0.919 0.148 1.418 0.715 0.261 0.295 0.329 0.431 0.216 0.465-0.443 0.113-0.443 0.125-0.216 0.499 0.125 0.204 0.227 0.556 0.227 0.783 0 0.374 0.034 0.42 0.352 0.488 0.42 0.079 0.965 0.454 1.146 0.783 0.079 0.136 0.17 0.533 0.204 0.874 0.057 0.601 0.068 0.624 0.42 0.658 0.465 0.045 0.874-0.159 0.783-0.397-0.148-0.374-0.409-2.44-0.34-2.701 0.045-0.17-0.034-0.431-0.227-0.772-0.34-0.579-0.488-1.634-0.318-2.27 0.079-0.272 0.079-0.42 0.011-0.42-0.17 0-0.579 0.227-0.851 0.477-0.238 0.216-0.238 0.216-0.647-0.352-0.443-0.601-1.192-1.18-1.872-1.418-0.567-0.204-1.543-0.329-1.827-0.238-0.204 0.057-0.216 0.113-0.113 0.306 0.148 0.272 0.182 0.25-0.579 0.409-0.34 0.079-0.896 0.295-1.226 0.488-0.59 0.329-0.601 0.352-0.409 0.567 0.182 0.204 0.17 0.227-0.261 0.704-0.25 0.272-0.601 0.738-0.772 1.033-0.318 0.545-0.306 0.613 0.068 0.772 0.045 0.023 0.023 0.352-0.034 0.738-0.068 0.386-0.079 0.931-0.045 1.214 0.068 0.443 0.125 0.522 0.34 0.522s0.295 0.102 0.42 0.533c0.352 1.191 0.091 2.201-0.692 2.723-0.454 0.318-0.896 0.329-1.452 0.045-0.942-0.488-1.509-1.577-1.589-3.087-0.068-1.316 0.159-2.133 0.931-3.302 0.182-0.284 0.182-0.306-0.261-0.862-1.543-1.94-5.186-3.223-9.089-3.189-0.783 0.011-1.725 0.057-2.099 0.113zM8.397 6.797c1.294 0.261 2.61 0.681 3.563 1.157 0.715 0.352 1.77 0.999 1.77 1.078 0 0.023-0.318-0.113-0.692-0.306-1.657-0.828-4.55-1.589-7.591-1.974-0.772-0.102-1.441-0.216-1.475-0.25-0.125-0.148 3.416 0.091 4.426 0.295zM12.539 9.725c-1.577 0.34-4.55 1.611-6.525 2.769-0.783 0.454-0.545 0.148 0.397-0.522 1.657-1.191 4.596-2.304 6.014-2.304 0.204 0 0.25 0.023 0.113 0.057zM14.014 10.292c-0.885 2.201-0.59 4.312 0.817 5.844l0.545 0.59-0.545-0.374c-1.067-0.726-1.611-1.974-1.6-3.643 0-1.112 0.204-1.838 0.726-2.701 0.329-0.545 0.352-0.443 0.057 0.284zM12.698 10.633c-1.452 1.509-2.86 3.484-3.643 5.084-0.477 0.987-0.465 0.806 0.011-0.454 0.635-1.645 1.872-3.37 3.279-4.562 0.386-0.329 0.738-0.601 0.783-0.601s-0.148 0.238-0.431 0.533z"></path>
</symbol>
<symbol id="icon-like" viewBox="0 0 32 32">
<path d="M23.6 2c-3.363 0-6.258 2.736-7.599 5.594-1.342-2.858-4.237-5.594-7.601-5.594-4.637 0-8.4 3.764-8.4 8.401 0 9.433 9.516 11.906 16.001 21.232 6.13-9.268 15.999-12.1 15.999-21.232 0-4.637-3.763-8.401-8.4-8.401z"></path>
</symbol>
<symbol id="icon-download" viewBox="0 0 32 32">
<path d="M12.22 2.522l-0.082 0.072-0.012 3.723-0.012 3.72-1.863 0.012c-1.732 0.012-1.87 0.015-1.985 0.060-0.303 0.113-0.445 0.265-0.46 0.485-0.005 0.105 0.005 0.165 0.037 0.223 0.058 0.1 0.32 0.405 3.667 4.232 4.045 4.623 3.785 4.333 3.975 4.425 0.328 0.163 0.735 0.16 1.062-0.005 0.163-0.082 0.218-0.142 3.883-4.332 2.047-2.338 3.738-4.29 3.762-4.338 0.098-0.205 0.017-0.422-0.207-0.572-0.258-0.17-0.177-0.162-2.223-0.178l-1.85-0.012-0.012-3.713c-0.008-2.043-0.023-3.73-0.032-3.752-0.010-0.020-0.052-0.058-0.090-0.080-0.067-0.040-0.337-0.042-3.775-0.042h-3.703l-0.080 0.072z"></path>
<path d="M8.235 14.095c-0.068 0.055-5.428 10.272-5.447 10.388-0.013 0.063-0.005 0.095 0.025 0.125 0.038 0.040 0.993 0.043 13.195 0.043 8.152 0 13.17-0.010 13.193-0.025 0.108-0.067 0.12-0.043-2.66-5.35-1.48-2.825-2.715-5.157-2.742-5.183-0.047-0.037-0.12-0.043-0.707-0.040h-0.652l-2.5 2.863c-1.375 1.575-2.587 2.947-2.695 3.053-0.133 0.125-0.253 0.212-0.363 0.265l-0.168 0.080h-0.688c-0.668 0-0.693-0.003-0.838-0.060-0.28-0.11-0.453-0.302-4.397-4.81l-1.217-1.393h-0.643c-0.57 0-0.648 0.005-0.695 0.045z"></path>
<path d="M2.848 25.497l-0.072 0.073v4.51l0.145 0.145h26.16l0.145-0.145v-4.51l-0.145-0.145h-26.16l-0.072 0.073zM25.030 26.793c0.488 0.23 0.69 0.793 0.462 1.28-0.080 0.175-0.325 0.407-0.505 0.48l-0.15 0.060h-20.45l-0.143-0.058c-0.080-0.032-0.205-0.113-0.277-0.18-0.567-0.52-0.368-1.405 0.37-1.64 0.080-0.025 2.112-0.030 10.313-0.027l10.213 0.005 0.168 0.080zM27.777 27.010c0.117 0.055 0.255 0.195 0.315 0.313 0.032 0.065 0.045 0.148 0.045 0.29 0 0.172-0.010 0.215-0.067 0.317-0.302 0.512-1.063 0.418-1.22-0.155-0.082-0.295 0.078-0.633 0.36-0.767 0.105-0.050 0.157-0.058 0.302-0.052 0.1 0.005 0.215 0.027 0.265 0.055z"></path>
</symbol>
<symbol id="icon-burger" viewBox="0 0 32 32">
<path d="M4.799 8.001c0-0.424 0.169-0.831 0.469-1.131s0.707-0.469 1.131-0.469h19.2c0.424 0 0.831 0.169 1.131 0.469s0.469 0.707 0.469 1.131-0.169 0.831-0.469 1.131c-0.3 0.3-0.707 0.469-1.131 0.469h-19.2c-0.424 0-0.831-0.169-1.131-0.469s-0.469-0.707-0.469-1.131z"></path>
<path d="M4.799 16.001c0-0.424 0.169-0.831 0.469-1.131s0.707-0.469 1.131-0.469h19.2c0.424 0 0.831 0.169 1.131 0.469s0.469 0.707 0.469 1.131c0 0.424-0.169 0.831-0.469 1.131s-0.707 0.469-1.131 0.469h-19.2c-0.424 0-0.831-0.169-1.131-0.469s-0.469-0.707-0.469-1.131z"></path>
<path d="M4.799 24.001c0-0.424 0.169-0.831 0.469-1.131s0.707-0.469 1.131-0.469h19.2c0.424 0 0.831 0.169 1.131 0.469s0.469 0.707 0.469 1.131c0 0.424-0.169 0.831-0.469 1.131s-0.707 0.469-1.131 0.469h-19.2c-0.424 0-0.831-0.169-1.131-0.469s-0.469-0.707-0.469-1.131z"></path>
</symbol>
<symbol id="icon-search" viewBox="0 0 32 32">
<path d="M31.008 27.231l-7.58-6.447c-0.784-0.705-1.622-1.029-2.299-0.998 1.789-2.096 2.87-4.815 2.87-7.787 0-6.627-5.373-12-12-12s-12 5.373-12 12 5.373 12 12 12c2.972 0 5.691-1.081 7.787-2.87-0.031 0.677 0.293 1.515 0.998 2.299l6.447 7.58c1.104 1.226 2.907 1.33 4.007 0.23s0.997-2.903-0.23-4.007zM12 20c-4.418 0-8-3.582-8-8s3.582-8 8-8 8 3.582 8 8-3.582 8-8 8z"></path>
</symbol>
<symbol id="icon-close" viewBox="0 0 32 32">
<path d="M32 3.223l-3.223-3.223-12.777 12.777-12.777-12.777-3.223 3.223 12.777 12.777-12.777 12.777 3.223 3.223 12.777-12.777 12.777 12.777 3.223-3.223-12.777-12.777 12.777-12.777z"></path>
</symbol>
<symbol id="icon-discord" viewBox="0 0 32 32">
<path d="M27.107 5.637c-2.071-0.969-4.286-1.673-6.602-2.075-0.284 0.514-0.617 1.206-0.846 1.756-2.462-0.37-4.9-0.37-7.317 0-0.229-0.55-0.569-1.242-0.856-1.756-2.318 0.401-4.535 1.108-6.607 2.080-4.178 6.314-5.311 12.47-4.744 18.54 2.771 2.069 5.457 3.326 8.097 4.149 0.652-0.897 1.233-1.851 1.734-2.856-0.954-0.362-1.868-0.81-2.731-1.329 0.229-0.17 0.453-0.347 0.669-0.53 5.265 2.463 10.986 2.463 16.189 0 0.219 0.183 0.443 0.36 0.669 0.53-0.866 0.522-1.782 0.969-2.736 1.332 0.501 1.003 1.080 1.959 1.734 2.856 2.643-0.823 5.331-2.080 8.102-4.152 0.664-7.036-1.135-13.136-4.757-18.545zM10.684 20.449c-1.581 0-2.877-1.476-2.877-3.273s1.269-3.275 2.877-3.275c1.608 0 2.905 1.476 2.877 3.275 0.002 1.797-1.268 3.273-2.877 3.273zM21.316 20.449c-1.581 0-2.877-1.476-2.877-3.273s1.268-3.275 2.877-3.275c1.608 0 2.904 1.476 2.877 3.275 0 1.797-1.269 3.273-2.877 3.273z"></path>
</symbol>
<symbol id="icon-user" viewBox="0 0 32 32">
<path d="M16 2.819c-1.394 0.094-2.512 0.475-3.356 1.15-1.131 0.9-1.619 2.050-1.688 4-0.037 1.1 0.056 2.025 0.325 3.219l0.144 0.656-0.175 0.2c-0.313 0.356-0.381 0.838-0.225 1.588 0.156 0.731 0.5 1.244 0.887 1.344 0.113 0.031 0.156 0.094 0.188 0.269 0.069 0.425 0.287 1.1 0.5 1.556 0.238 0.525 0.719 1.225 0.875 1.288 0.094 0.038 0.1 0.163 0.075 1.337-0.031 1.231-0.044 1.319-0.194 1.613-0.088 0.169-0.3 0.438-0.469 0.6-0.613 0.569-1.194 0.881-3.169 1.675-3.156 1.262-4.394 2.262-5 4.031-0.088 0.256-0.281 1.231-0.281 1.419 0 0.031 5.488 0.050 12.194 0.050h12.2l-0.044-0.394c-0.1-1.012-0.55-2.019-1.219-2.744-0.844-0.919-1.775-1.462-4.113-2.419-0.762-0.306-1.538-0.637-1.719-0.731-0.875-0.444-1.531-0.988-1.781-1.488-0.15-0.294-0.156-0.381-0.194-1.569l-0.031-1.262 0.256-0.262c0.45-0.462 1.075-1.856 1.175-2.631 0.031-0.256 0.063-0.313 0.169-0.313 0.2 0 0.637-0.494 0.781-0.881 0.175-0.469 0.256-1.125 0.188-1.488-0.025-0.156-0.131-0.406-0.238-0.55l-0.181-0.269 0.181-0.725c0.294-1.175 0.4-1.963 0.4-2.994 0-0.963-0.056-1.381-0.294-2.063-0.356-1.050-1.212-1.831-2.25-2.044-0.294-0.063-0.4-0.119-0.525-0.275-0.5-0.663-1.788-1-3.394-0.894z"></path>
</symbol>
</defs>
</svg>